<svg xmlns="http://www.w3.org/2000/svg" xmlns:xlink="http://www.w3.org/1999/xlink" width="1080" zoomAndPan="magnify" viewBox="0 0 810 809.999993" height="1080" preserveAspectRatio="xMidYMid meet" version="1.0"><path fill="#ffbe0d" d="M 128.222656 421.808594 C 125.640625 424.320312 124.460938 427.945312 125.074219 431.507812 L 130.863281 465.351562 C 132.402344 474.296875 123.019531 481.113281 115.011719 476.882812 L 84.691406 460.894531 C 81.507812 459.226562 77.699219 459.226562 74.511719 460.894531 L 44.191406 476.882812 C 36.984375 480.695312 28.664062 475.554688 28.214844 467.957031 C 28.136719 467.117188 28.195312 466.25 28.339844 465.351562 L 34.136719 431.507812 C 34.730469 427.945312 33.554688 424.320312 30.992188 421.808594 L 6.460938 397.832031 C -0.0390625 391.496094 3.554688 380.457031 12.519531 379.148438 L 46.414062 374.21875 C 49.96875 373.691406 53.039062 371.464844 54.625 368.230469 L 69.804688 337.425781 C 73.808594 329.28125 85.375 329.28125 89.398438 337.425781 L 104.558594 368.230469 C 106.144531 371.453125 109.214844 373.691406 112.769531 374.21875 L 146.683594 379.148438 C 147.542969 379.277344 148.351562 379.492188 149.101562 379.785156 C 156.25 382.519531 158.609375 392.089844 152.734375 397.832031 Z M 128.222656 421.808594 " fill-opacity="1" fill-rule="nonzero"/><path fill="#ffbe0d" d="M 291.070312 421.808594 C 288.488281 424.320312 287.308594 427.945312 287.921875 431.507812 L 293.710938 465.351562 C 295.25 474.296875 285.867188 481.113281 277.859375 476.882812 L 247.539062 460.894531 C 244.355469 459.226562 240.542969 459.226562 237.359375 460.894531 L 207.039062 476.882812 C 199.832031 480.695312 191.511719 475.554688 191.0625 467.957031 C 190.984375 467.117188 191.042969 466.25 191.1875 465.351562 L 196.984375 431.507812 C 197.578125 427.945312 196.402344 424.320312 193.839844 421.808594 L 169.308594 397.832031 C 162.808594 391.496094 166.402344 380.457031 175.367188 379.148438 L 209.261719 374.21875 C 212.816406 373.691406 215.886719 371.464844 217.472656 368.230469 L 232.652344 337.425781 C 236.65625 329.28125 248.222656 329.28125 252.246094 337.425781 L 267.40625 368.230469 C 268.992188 371.453125 272.0625 373.691406 275.617188 374.21875 L 309.53125 379.148438 C 310.390625 379.277344 311.199219 379.492188 311.949219 379.785156 C 319.097656 382.519531 321.457031 392.089844 315.582031 397.832031 Z M 291.070312 421.808594 " fill-opacity="1" fill-rule="nonzero"/><path fill="#ffbe0d" d="M 453.90625 421.808594 C 451.324219 424.320312 450.148438 427.945312 450.761719 431.507812 L 456.546875 465.351562 C 458.085938 474.296875 448.707031 481.113281 440.695312 476.882812 L 410.378906 460.894531 C 407.191406 459.226562 403.382812 459.226562 400.195312 460.894531 L 369.878906 476.882812 C 362.667969 480.695312 354.347656 475.554688 353.898438 467.957031 C 353.820312 467.117188 353.878906 466.25 354.027344 465.351562 L 359.824219 431.507812 C 360.417969 427.945312 359.238281 424.320312 356.675781 421.808594 L 332.144531 397.832031 C 325.648438 391.496094 329.242188 380.457031 338.203125 379.148438 L 372.097656 374.21875 C 375.65625 373.691406 378.722656 371.464844 380.3125 368.230469 L 395.492188 337.425781 C 399.496094 329.28125 411.058594 329.28125 415.082031 337.425781 L 430.242188 368.230469 C 431.832031 371.453125 434.898438 373.691406 438.457031 374.21875 L 472.371094 379.148438 C 473.226562 379.277344 474.035156 379.492188 474.785156 379.785156 C 481.9375 382.519531 484.296875 392.089844 478.421875 397.832031 Z M 453.90625 421.808594 " fill-opacity="1" fill-rule="nonzero"/><path fill="#ffbe0d" d="M 616.753906 421.808594 C 614.171875 424.320312 612.996094 427.945312 613.609375 431.507812 L 619.394531 465.351562 C 620.933594 474.296875 611.554688 481.113281 603.542969 476.882812 L 573.226562 460.894531 C 570.039062 459.226562 566.230469 459.226562 563.042969 460.894531 L 532.726562 476.882812 C 525.515625 480.695312 517.195312 475.554688 516.746094 467.957031 C 516.667969 467.117188 516.726562 466.25 516.875 465.351562 L 522.671875 431.507812 C 523.265625 427.945312 522.085938 424.320312 519.523438 421.808594 L 494.992188 397.832031 C 488.492188 391.496094 492.089844 380.457031 501.050781 379.148438 L 534.945312 374.21875 C 538.503906 373.691406 541.570312 371.464844 543.160156 368.230469 L 558.339844 337.425781 C 562.34375 329.28125 573.90625 329.28125 577.929688 337.425781 L 593.089844 368.230469 C 594.679688 371.453125 597.746094 373.691406 601.304688 374.21875 L 635.21875 379.148438 C 636.074219 379.277344 636.882812 379.492188 637.632812 379.785156 C 644.785156 382.519531 647.140625 392.089844 641.269531 397.832031 Z M 616.753906 421.808594 " fill-opacity="1" fill-rule="nonzero"/><path fill="#ffbe0d" d="M 779.59375 421.808594 C 777.011719 424.320312 775.832031 427.945312 776.445312 431.507812 L 782.234375 465.351562 C 783.773438 474.296875 774.390625 481.113281 766.382812 476.882812 L 736.0625 460.894531 C 732.878906 459.226562 729.066406 459.226562 725.882812 460.894531 L 695.5625 476.882812 C 688.355469 480.695312 680.035156 475.554688 679.585938 467.957031 C 679.507812 467.117188 679.566406 466.25 679.710938 465.351562 L 685.507812 431.507812 C 686.101562 427.945312 684.925781 424.320312 682.363281 421.808594 L 657.832031 397.832031 C 651.332031 391.496094 654.925781 380.457031 663.890625 379.148438 L 697.785156 374.21875 C 701.339844 373.691406 704.410156 371.464844 705.996094 368.230469 L 721.175781 337.425781 C 725.179688 329.28125 736.746094 329.28125 740.769531 337.425781 L 755.929688 368.230469 C 757.515625 371.453125 760.585938 373.691406 764.140625 374.21875 L 798.054688 379.148438 C 798.914062 379.277344 799.722656 379.492188 800.472656 379.785156 C 807.621094 382.519531 809.980469 392.089844 804.105469 397.832031 Z M 779.59375 421.808594 " fill-opacity="1" fill-rule="nonzero"/><path fill="#ffce00" d="M 149.109375 379.785156 C 122.269531 423.234375 79.121094 455.503906 28.214844 467.957031 C 28.136719 467.117188 28.195312 466.25 28.339844 465.351562 L 34.136719 431.507812 C 34.730469 427.945312 33.554688 424.320312 30.992188 421.808594 L 6.460938 397.832031 C -0.0390625 391.496094 3.554688 380.457031 12.519531 379.148438 L 46.414062 374.21875 C 49.96875 373.691406 53.039062 371.464844 54.625 368.230469 L 69.804688 337.425781 C 73.808594 329.28125 85.375 329.28125 89.398438 337.425781 L 104.558594 368.230469 C 106.144531 371.453125 109.214844 373.691406 112.769531 374.21875 L 146.683594 379.148438 C 147.5625 379.277344 148.359375 379.480469 149.109375 379.785156 Z M 149.109375 379.785156 " fill-opacity="1" fill-rule="nonzero"/><path fill="#ffce00" d="M 311.957031 379.785156 C 285.117188 423.234375 241.96875 455.503906 191.0625 467.957031 C 190.984375 467.117188 191.042969 466.25 191.1875 465.351562 L 196.984375 431.507812 C 197.578125 427.945312 196.402344 424.320312 193.839844 421.808594 L 169.308594 397.832031 C 162.808594 391.496094 166.402344 380.457031 175.367188 379.148438 L 209.261719 374.21875 C 212.816406 373.691406 215.886719 371.464844 217.472656 368.230469 L 232.652344 337.425781 C 236.65625 329.28125 248.222656 329.28125 252.246094 337.425781 L 267.40625 368.230469 C 268.992188 371.453125 272.0625 373.691406 275.617188 374.21875 L 309.53125 379.148438 C 310.398438 379.277344 311.207031 379.480469 311.957031 379.785156 Z M 311.957031 379.785156 " fill-opacity="1" fill-rule="nonzero"/><path fill="#ffce00" d="M 474.796875 379.785156 C 447.957031 423.234375 404.804688 455.503906 353.898438 467.957031 C 353.820312 467.117188 353.878906 466.25 354.027344 465.351562 L 359.824219 431.507812 C 360.417969 427.945312 359.238281 424.320312 356.675781 421.808594 L 332.144531 397.832031 C 325.648438 391.496094 329.242188 380.457031 338.203125 379.148438 L 372.097656 374.21875 C 375.65625 373.691406 378.722656 371.464844 380.3125 368.230469 L 395.492188 337.425781 C 399.496094 329.28125 411.058594 329.28125 415.082031 337.425781 L 430.242188 368.230469 C 431.832031 371.453125 434.898438 373.691406 438.457031 374.21875 L 472.371094 379.148438 C 473.238281 379.277344 474.046875 379.480469 474.796875 379.785156 Z M 474.796875 379.785156 " fill-opacity="1" fill-rule="nonzero"/><path fill="#ffce00" d="M 637.632812 379.785156 C 610.792969 423.234375 567.644531 455.503906 516.738281 467.957031 C 516.660156 467.117188 516.71875 466.25 516.863281 465.351562 L 522.660156 431.507812 C 523.253906 427.945312 522.078125 424.320312 519.515625 421.808594 L 494.984375 397.832031 C 488.484375 391.496094 492.078125 380.457031 501.042969 379.148438 L 534.9375 374.21875 C 538.492188 373.691406 541.5625 371.464844 543.148438 368.230469 L 558.328125 337.425781 C 562.332031 329.28125 573.898438 329.28125 577.921875 337.425781 L 593.082031 368.230469 C 594.667969 371.453125 597.738281 373.691406 601.292969 374.21875 L 635.207031 379.148438 C 636.085938 379.277344 636.882812 379.480469 637.632812 379.785156 Z M 637.632812 379.785156 " fill-opacity="1" fill-rule="nonzero"/><path fill="#ffce00" d="M 800.480469 379.785156 C 773.640625 423.234375 730.492188 455.503906 679.585938 467.957031 C 679.507812 467.117188 679.566406 466.25 679.710938 465.351562 L 685.507812 431.507812 C 686.101562 427.945312 684.925781 424.320312 682.363281 421.808594 L 657.832031 397.832031 C 651.332031 391.496094 654.925781 380.457031 663.890625 379.148438 L 697.785156 374.21875 C 701.339844 373.691406 704.410156 371.464844 705.996094 368.230469 L 721.175781 337.425781 C 725.179688 329.28125 736.746094 329.28125 740.769531 337.425781 L 755.929688 368.230469 C 757.515625 371.453125 760.585938 373.691406 764.140625 374.21875 L 798.054688 379.148438 C 798.921875 379.277344 799.730469 379.480469 800.480469 379.785156 Z M 800.480469 379.785156 " fill-opacity="1" fill-rule="nonzero"/></svg>