<svg xmlns="http://www.w3.org/2000/svg" xmlns:xlink="http://www.w3.org/1999/xlink" width="1080" zoomAndPan="magnify" viewBox="0 0 810 809.999993" height="1080" preserveAspectRatio="xMidYMid meet" version="1.0"><path fill="#b6039f" d="M 372.957031 483.042969 C 377.9375 479.8125 382.460938 475.664062 388.832031 475.289062 C 400.902344 475.785156 412.957031 476.15625 425.007812 474.78125 C 431.195312 476.34375 436.242188 479.746094 440.613281 484.300781 C 440.136719 485.609375 439.644531 486.917969 439.167969 488.242188 C 434.578125 496.453125 430.292969 504.835938 425.3125 512.789062 C 422.339844 517.53125 422.082031 522.242188 422.628906 527.445312 C 426.453125 564.128906 430.191406 600.8125 433.949219 637.496094 C 435.070312 648.375 436.125 659.269531 437.398438 671.96875 C 439.320312 667.582031 440.527344 664.878906 441.683594 662.160156 C 448.382812 646.214844 455.164062 630.304688 461.726562 614.324219 C 472.433594 588.25 483.007812 562.105469 493.632812 535.992188 C 496.472656 530.691406 498.238281 525.148438 498.699219 519.027344 C 499.34375 510.292969 500.703125 501.589844 501.640625 492.867188 C 503.492188 475.425781 505.257812 457.96875 507.078125 440.527344 C 507.570312 434.96875 507.945312 429.410156 508.609375 423.867188 C 509.425781 417 507.164062 410.949219 503.679688 404.644531 C 508.660156 405.253906 512.960938 406.191406 516.410156 409.351562 C 526.203125 418.34375 535.976562 427.355469 545.683594 436.449219 C 547.058594 437.738281 548.523438 439.335938 549.082031 441.070312 C 551.90625 449.589844 558.890625 452.222656 566.472656 455.265625 C 607.441406 471.738281 649.445312 485.625 689.289062 504.867188 C 699.558594 509.832031 709.585938 515.203125 717.421875 523.667969 C 729.527344 536.707031 733.929688 552.175781 727.128906 568.75 C 679.652344 684.71875 596.324219 760.550781 472.996094 786.78125 C 364.132812 809.933594 266.441406 781.984375 181.582031 710.453125 C 137.234375 673.074219 105.121094 626.460938 83.667969 572.542969 C 76.105469 553.535156 80.335938 536.128906 95.875 522.734375 C 109.558594 510.9375 126.132812 504.257812 142.453125 497.40625 C 176.109375 483.28125 210.003906 469.730469 243.800781 455.960938 C 244.988281 455.488281 246.195312 455.027344 247.417969 454.671875 C 253.660156 452.816406 259.371094 450.625 260.203125 442.738281 C 260.542969 439.523438 262.820312 437.027344 265.320312 434.832031 C 273.207031 427.898438 281.128906 420.960938 288.761719 413.738281 C 293.894531 408.875 299.757812 405.933594 307.5625 404.625 C 301.015625 414.894531 300.355469 425.601562 302.699219 436.703125 C 302.683594 438.199219 302.480469 439.695312 302.648438 441.15625 C 305.402344 465.328125 308.328125 489.484375 310.929688 513.675781 C 311.863281 522.394531 312.78125 530.996094 317.929688 538.476562 C 318.679688 540.6875 319.308594 542.964844 320.191406 545.121094 C 331.15625 571.589844 342.136719 598.039062 353.136719 624.492188 C 359.714844 640.300781 366.308594 656.074219 373.28125 672.785156 C 374.25 666.734375 375.132812 661.683594 375.863281 656.601562 C 382.136719 612.097656 388.375 567.578125 394.699219 523.074219 C 395.039062 520.625 395.074219 518.621094 393.578125 516.445312 C 387.183594 507.097656 380.980469 497.628906 374.726562 488.210938 C 374.128906 486.476562 373.550781 484.757812 372.957031 483.042969 Z M 411.324219 467.777344 C 412.222656 467.25 413.125 466.6875 414.042969 466.195312 C 442.226562 450.710938 465.109375 429.765625 480.898438 401.445312 C 482.292969 398.929688 483.230469 396.636719 483.058594 393.660156 C 482.140625 378.449219 482.667969 363.199219 482.734375 347.96875 C 482.753906 343.496094 483.910156 339.773438 486.339844 336.019531 C 496.84375 319.75 506.210938 302.988281 506.753906 282.863281 C 506.839844 279.683594 507.351562 276.503906 507.65625 273.308594 C 522.410156 276.285156 527.800781 273.75 534.394531 260.167969 C 540.464844 247.65625 545.308594 234.652344 549.03125 221.242188 C 549.59375 219.203125 549.933594 217.042969 549.96875 214.933594 C 550.136719 204.90625 543.8125 198.90625 533.765625 199.753906 C 530.589844 200.027344 527.476562 201.148438 524.0625 201.964844 C 530.707031 179.117188 535.007812 156.238281 539.835938 133.476562 C 542.417969 121.320312 541.570312 110.152344 532.527344 100.105469 C 537.457031 99.578125 541.160156 102.367188 545.496094 102.453125 C 543.285156 89.195312 532.59375 84.058594 522.582031 78.144531 C 527.496094 75.78125 532.085938 76.257812 536.808594 76.835938 C 536.332031 74.335938 534.601562 73.570312 533.324219 72.601562 C 520.050781 62.65625 505.003906 58.015625 488.480469 57.796875 C 486.578125 57.761719 483.890625 59.460938 482.890625 55.636719 C 480.238281 45.402344 473.132812 38.128906 465.378906 31.652344 C 435.820312 6.96875 402.484375 -0.0351562 364.78125 11.050781 C 373.179688 14.464844 382.238281 14.875 389.277344 21.757812 C 358.660156 21.316406 331.429688 29.917969 305.367188 43.074219 C 295.136719 48.242188 288.457031 55.875 288.21875 69.628906 C 285.992188 64.339844 284.445312 60.601562 282.675781 56.402344 C 279.378906 60.753906 277.167969 64.886719 275.484375 69.289062 C 268.921875 86.390625 267.207031 104.136719 268.414062 122.289062 C 270.214844 149.164062 276.539062 175.039062 285.308594 200.382812 C 285.363281 200.875 285.429688 201.386719 285.480469 201.878906 C 285.054688 201.710938 284.628906 201.523438 284.207031 201.351562 C 283.578125 201.214844 282.929688 201.132812 282.320312 200.960938 C 265.828125 196.574219 257.226562 204.769531 261.359375 221.460938 C 264.691406 234.941406 269.65625 247.894531 275.570312 260.457031 C 282.300781 274.753906 287.113281 276.964844 302.851562 273.207031 C 302.9375 292.296875 307.578125 310.0625 318.117188 326.058594 C 320.34375 329.441406 322.199219 333.113281 324.644531 336.324219 C 327.160156 339.621094 327.722656 343.140625 327.636719 347.117188 C 327.347656 362.128906 327.296875 377.121094 327.027344 392.132812 C 326.976562 395.207031 327.417969 397.945312 328.996094 400.648438 C 345.148438 428.253906 367.007812 449.996094 395.191406 465.226562 C 398.828125 467.199219 402.246094 470.105469 406.835938 469.78125 C 408.210938 468.882812 409.417969 467.554688 411.324219 467.777344 Z M 411.324219 467.777344 " fill-opacity="1" fill-rule="nonzero"/></svg>