<svg xmlns="http://www.w3.org/2000/svg" xmlns:xlink="http://www.w3.org/1999/xlink" width="1080" zoomAndPan="magnify" viewBox="0 0 810 809.999993" height="1080" preserveAspectRatio="xMidYMid meet" version="1.0"><path fill="#b6039f" d="M 809.335938 462.136719 L 809.335938 700.761719 C 809.335938 702.710938 809.242188 704.65625 809.050781 706.597656 C 808.859375 708.535156 808.574219 710.460938 808.191406 712.375 C 807.8125 714.285156 807.339844 716.175781 806.773438 718.039062 C 806.207031 719.90625 805.550781 721.738281 804.804688 723.539062 C 804.058594 725.339844 803.226562 727.101562 802.308594 728.820312 C 801.390625 730.539062 800.386719 732.210938 799.304688 733.832031 C 798.222656 735.453125 797.0625 737.015625 795.824219 738.523438 C 794.589844 740.03125 793.28125 741.472656 791.902344 742.851562 C 790.523438 744.230469 789.082031 745.539062 787.574219 746.773438 C 786.066406 748.011719 784.503906 749.171875 782.882812 750.253906 C 781.261719 751.335938 779.59375 752.335938 777.871094 753.257812 C 776.152344 754.175781 774.394531 755.007812 772.59375 755.753906 C 770.789062 756.5 768.957031 757.15625 767.09375 757.722656 C 765.226562 758.289062 763.335938 758.761719 761.425781 759.140625 C 759.515625 759.523438 757.585938 759.808594 755.648438 760 C 753.707031 760.191406 751.761719 760.285156 749.8125 760.285156 L 58.859375 760.285156 C 56.910156 760.285156 54.964844 760.191406 53.027344 760 C 51.085938 759.808594 49.160156 759.523438 47.25 759.140625 C 45.335938 758.761719 43.449219 758.289062 41.582031 757.722656 C 39.714844 757.15625 37.882812 756.5 36.082031 755.753906 C 34.28125 755.007812 32.519531 754.175781 30.800781 753.257812 C 29.082031 752.335938 27.414062 751.335938 25.792969 750.253906 C 24.171875 749.171875 22.605469 748.011719 21.097656 746.773438 C 19.59375 745.539062 18.148438 744.230469 16.769531 742.851562 C 15.394531 741.472656 14.085938 740.03125 12.847656 738.523438 C 11.613281 737.015625 10.453125 735.453125 9.367188 733.832031 C 8.285156 732.210938 7.285156 730.539062 6.367188 728.820312 C 5.445312 727.101562 4.613281 725.339844 3.867188 723.539062 C 3.121094 721.738281 2.464844 719.90625 1.898438 718.039062 C 1.335938 716.175781 0.859375 714.285156 0.480469 712.375 C 0.101562 710.460938 -0.183594 708.535156 -0.375 706.597656 C -0.566406 704.65625 -0.664062 702.710938 -0.664062 700.761719 L -0.664062 462.136719 L 309.019531 462.136719 C 309.152344 463.605469 309.320312 465.070312 309.523438 466.53125 C 309.726562 467.996094 309.960938 469.449219 310.230469 470.902344 C 310.5 472.351562 310.804688 473.796875 311.140625 475.230469 C 311.476562 476.667969 311.847656 478.097656 312.25 479.515625 C 312.652344 480.9375 313.085938 482.34375 313.554688 483.746094 C 314.019531 485.144531 314.519531 486.53125 315.050781 487.910156 C 315.582031 489.285156 316.144531 490.648438 316.742188 492 C 317.335938 493.347656 317.960938 494.683594 318.617188 496.007812 C 319.273438 497.328125 319.960938 498.632812 320.679688 499.921875 C 321.394531 501.210938 322.140625 502.484375 322.917969 503.738281 C 323.691406 504.996094 324.496094 506.230469 325.328125 507.449219 C 326.164062 508.667969 327.023438 509.867188 327.910156 511.042969 C 328.800781 512.222656 329.714844 513.378906 330.65625 514.515625 C 331.597656 515.648438 332.566406 516.765625 333.558594 517.855469 C 334.550781 518.945312 335.570312 520.011719 336.613281 521.058594 C 337.65625 522.101562 338.722656 523.121094 339.8125 524.117188 C 340.902344 525.109375 342.011719 526.078125 343.148438 527.023438 C 344.28125 527.964844 345.4375 528.882812 346.617188 529.773438 C 347.792969 530.660156 348.988281 531.523438 350.207031 532.359375 C 351.421875 533.191406 352.660156 534 353.914062 534.777344 C 355.167969 535.554688 356.4375 536.300781 357.726562 537.019531 C 359.015625 537.738281 360.320312 538.425781 361.640625 539.085938 C 362.960938 539.742188 364.296875 540.371094 365.644531 540.964844 C 366.996094 541.5625 368.359375 542.128906 369.734375 542.660156 C 371.109375 543.195312 372.496094 543.695312 373.894531 544.164062 C 375.292969 544.632812 376.703125 545.070312 378.121094 545.476562 C 379.542969 545.878906 380.96875 546.25 382.40625 546.589844 C 383.839844 546.925781 385.285156 547.230469 386.734375 547.503906 C 388.1875 547.773438 389.640625 548.011719 391.101562 548.214844 C 392.5625 548.421875 394.027344 548.589844 395.5 548.726562 C 396.96875 548.863281 398.4375 548.964844 399.914062 549.03125 C 401.386719 549.101562 402.863281 549.136719 404.335938 549.136719 C 405.8125 549.136719 407.289062 549.101562 408.761719 549.03125 C 410.234375 548.964844 411.707031 548.863281 413.175781 548.726562 C 414.644531 548.589844 416.109375 548.421875 417.570312 548.214844 C 419.03125 548.011719 420.488281 547.773438 421.9375 547.503906 C 423.390625 547.230469 424.832031 546.925781 426.269531 546.589844 C 427.703125 546.25 429.132812 545.878906 430.550781 545.476562 C 431.972656 545.070312 433.378906 544.632812 434.777344 544.164062 C 436.175781 543.695312 437.566406 543.195312 438.941406 542.660156 C 440.316406 542.128906 441.679688 541.5625 443.027344 540.964844 C 444.378906 540.371094 445.710938 539.742188 447.035156 539.085938 C 448.355469 538.425781 449.660156 537.738281 450.949219 537.019531 C 452.234375 536.300781 453.507812 535.554688 454.761719 534.777344 C 456.015625 534 457.25 533.191406 458.46875 532.359375 C 459.683594 531.523438 460.882812 530.660156 462.058594 529.773438 C 463.234375 528.882812 464.390625 527.964844 465.527344 527.023438 C 466.660156 526.078125 467.773438 525.109375 468.863281 524.117188 C 469.953125 523.121094 471.019531 522.101562 472.0625 521.058594 C 473.105469 520.011719 474.121094 518.945312 475.117188 517.855469 C 476.109375 516.765625 477.078125 515.648438 478.019531 514.515625 C 478.960938 513.378906 479.875 512.222656 480.761719 511.042969 C 481.652344 509.867188 482.511719 508.667969 483.34375 507.449219 C 484.175781 506.230469 484.980469 504.996094 485.757812 503.738281 C 486.535156 502.484375 487.28125 501.210938 487.996094 499.921875 C 488.714844 498.632812 489.398438 497.328125 490.054688 496.007812 C 490.714844 494.683594 491.339844 493.347656 491.933594 492 C 492.527344 490.648438 493.089844 489.285156 493.621094 487.910156 C 494.15625 486.53125 494.652344 485.144531 495.121094 483.746094 C 495.589844 482.34375 496.023438 480.9375 496.425781 479.515625 C 496.828125 478.097656 497.199219 476.667969 497.535156 475.230469 C 497.871094 473.796875 498.171875 472.351562 498.441406 470.902344 C 498.710938 469.449219 498.949219 467.996094 499.148438 466.53125 C 499.351562 465.070312 499.519531 463.605469 499.65625 462.136719 Z M 809.335938 462.136719 " fill-opacity="1" fill-rule="nonzero"/><path fill="#b6039f" d="M 470.621094 361.914062 L 470.621094 453.519531 C 470.824219 456.480469 470.824219 459.441406 470.621094 462.402344 C 470.371094 464.382812 470.03125 466.34375 469.601562 468.292969 C 469.171875 470.242188 468.652344 472.167969 468.050781 474.070312 C 467.449219 475.972656 466.761719 477.84375 465.988281 479.683594 C 465.214844 481.527344 464.363281 483.328125 463.425781 485.089844 C 462.492188 486.855469 461.480469 488.570312 460.386719 490.242188 C 459.296875 491.914062 458.136719 493.535156 456.898438 495.101562 C 455.664062 496.667969 454.359375 498.175781 452.984375 499.621094 C 451.613281 501.070312 450.175781 502.457031 448.679688 503.773438 C 447.183594 505.09375 445.628906 506.34375 444.015625 507.523438 C 442.40625 508.699219 440.746094 509.804688 439.035156 510.832031 C 437.328125 511.863281 435.574219 512.8125 433.777344 513.683594 C 431.980469 514.550781 430.148438 515.339844 428.285156 516.042969 C 426.417969 516.75 424.519531 517.371094 422.597656 517.902344 C 420.675781 518.4375 418.730469 518.882812 416.769531 519.242188 C 414.804688 519.601562 412.828125 519.867188 410.84375 520.046875 C 408.855469 520.230469 406.863281 520.320312 404.867188 520.320312 C 402.871094 520.320312 400.878906 520.230469 398.890625 520.046875 C 396.90625 519.867188 394.929688 519.601562 392.964844 519.242188 C 391.003906 518.882812 389.058594 518.4375 387.136719 517.902344 C 385.214844 517.371094 383.320312 516.75 381.453125 516.042969 C 379.585938 515.339844 377.753906 514.550781 375.957031 513.683594 C 374.160156 512.8125 372.40625 511.863281 370.699219 510.832031 C 368.988281 509.804688 367.328125 508.699219 365.71875 507.523438 C 364.105469 506.34375 362.554688 505.09375 361.054688 503.773438 C 359.558594 502.457031 358.121094 501.070312 356.75 499.621094 C 355.378906 498.175781 354.074219 496.667969 352.835938 495.101562 C 351.601562 493.535156 350.4375 491.914062 349.347656 490.242188 C 348.257812 488.570312 347.242188 486.855469 346.308594 485.089844 C 345.375 483.328125 344.519531 481.527344 343.746094 479.683594 C 342.976562 477.84375 342.289062 475.972656 341.683594 474.070312 C 341.082031 472.167969 340.5625 470.242188 340.136719 468.292969 C 339.707031 466.34375 339.363281 464.382812 339.113281 462.402344 C 338.6875 459.457031 338.46875 456.496094 338.449219 453.519531 L 338.449219 361.914062 C 338.449219 361.367188 338.476562 360.820312 338.53125 360.277344 C 338.585938 359.730469 338.664062 359.191406 338.769531 358.65625 C 338.878906 358.117188 339.011719 357.589844 339.167969 357.066406 C 339.328125 356.542969 339.511719 356.027344 339.722656 355.519531 C 339.929688 355.015625 340.164062 354.523438 340.421875 354.039062 C 340.679688 353.558594 340.960938 353.089844 341.265625 352.632812 C 341.570312 352.179688 341.894531 351.738281 342.242188 351.316406 C 342.589844 350.894531 342.957031 350.488281 343.34375 350.101562 C 343.730469 349.714844 344.132812 349.347656 344.558594 349 C 344.980469 348.65625 345.417969 348.328125 345.875 348.023438 C 346.328125 347.722656 346.796875 347.441406 347.28125 347.183594 C 347.761719 346.925781 348.257812 346.691406 348.761719 346.480469 C 349.265625 346.273438 349.78125 346.089844 350.304688 345.929688 C 350.828125 345.769531 351.359375 345.636719 351.894531 345.53125 C 352.433594 345.425781 352.972656 345.34375 353.515625 345.289062 C 354.0625 345.238281 354.605469 345.210938 355.152344 345.210938 L 454.582031 345.210938 C 455.648438 345.253906 456.703125 345.394531 457.746094 345.640625 C 458.785156 345.886719 459.792969 346.226562 460.769531 346.667969 C 461.746094 347.105469 462.667969 347.632812 463.542969 348.25 C 464.417969 348.867188 465.226562 349.558594 465.964844 350.332031 C 466.707031 351.101562 467.367188 351.9375 467.949219 352.835938 C 468.527344 353.734375 469.019531 354.679688 469.417969 355.671875 C 469.816406 356.664062 470.117188 357.683594 470.320312 358.734375 C 470.523438 359.785156 470.621094 360.84375 470.621094 361.914062 Z M 470.621094 361.914062 " fill-opacity="1" fill-rule="nonzero"/><path fill="#b6039f" d="M 749.8125 216.882812 L 603.191406 216.882812 L 603.191406 144.5 C 603.1875 142.9375 603.148438 141.375 603.070312 139.8125 C 602.992188 138.253906 602.875 136.695312 602.71875 135.136719 C 602.566406 133.582031 602.371094 132.03125 602.140625 130.488281 C 601.910156 128.941406 601.644531 127.402344 601.335938 125.867188 C 601.03125 124.335938 600.6875 122.8125 600.308594 121.292969 C 599.925781 119.777344 599.507812 118.273438 599.054688 116.777344 C 598.601562 115.28125 598.109375 113.796875 597.582031 112.328125 C 597.054688 110.855469 596.492188 109.398438 595.894531 107.953125 C 595.296875 106.507812 594.664062 105.078125 593.996094 103.667969 C 593.328125 102.253906 592.625 100.859375 591.890625 99.480469 C 591.152344 98.101562 590.382812 96.738281 589.582031 95.398438 C 588.777344 94.058594 587.941406 92.738281 587.074219 91.4375 C 586.207031 90.136719 585.308594 88.859375 584.378906 87.601562 C 583.449219 86.34375 582.488281 85.113281 581.5 83.902344 C 580.507812 82.695312 579.488281 81.507812 578.441406 80.351562 C 577.390625 79.191406 576.316406 78.058594 575.210938 76.949219 C 574.109375 75.84375 572.976562 74.765625 571.820312 73.714844 C 570.664062 72.660156 569.484375 71.640625 568.277344 70.644531 C 567.070312 69.652344 565.839844 68.6875 564.585938 67.753906 C 563.332031 66.820312 562.058594 65.917969 560.757812 65.046875 C 559.460938 64.175781 558.144531 63.335938 556.804688 62.53125 C 555.464844 61.722656 554.109375 60.949219 552.730469 60.210938 C 551.355469 59.46875 549.960938 58.765625 548.546875 58.09375 C 547.136719 57.421875 545.710938 56.785156 544.269531 56.179688 C 542.824219 55.578125 541.371094 55.011719 539.898438 54.480469 C 538.429688 53.949219 536.945312 53.457031 535.453125 52.996094 C 533.957031 52.539062 532.453125 52.117188 530.9375 51.734375 C 529.421875 51.347656 527.898438 51 526.367188 50.691406 C 524.835938 50.378906 523.296875 50.109375 521.75 49.871094 C 520.207031 49.636719 518.65625 49.441406 517.101562 49.28125 C 515.546875 49.121094 513.988281 49 512.425781 48.917969 C 510.867188 48.835938 509.304688 48.789062 507.742188 48.785156 L 300.933594 48.785156 C 299.371094 48.789062 297.808594 48.835938 296.246094 48.917969 C 294.6875 49 293.128906 49.121094 291.574219 49.28125 C 290.019531 49.441406 288.46875 49.636719 286.921875 49.871094 C 285.378906 50.109375 283.839844 50.378906 282.304688 50.691406 C 280.773438 51 279.25 51.347656 277.734375 51.734375 C 276.222656 52.117188 274.714844 52.539062 273.222656 52.996094 C 271.726562 53.457031 270.246094 53.949219 268.773438 54.480469 C 267.304688 55.011719 265.847656 55.578125 264.40625 56.179688 C 262.964844 56.785156 261.535156 57.421875 260.125 58.09375 C 258.714844 58.765625 257.320312 59.46875 255.945312 60.210938 C 254.566406 60.949219 253.207031 61.722656 251.871094 62.53125 C 250.53125 63.335938 249.210938 64.175781 247.914062 65.046875 C 246.617188 65.917969 245.339844 66.820312 244.085938 67.753906 C 242.832031 68.6875 241.605469 69.652344 240.398438 70.644531 C 239.191406 71.640625 238.007812 72.660156 236.851562 73.714844 C 235.695312 74.765625 234.566406 75.84375 233.460938 76.949219 C 232.359375 78.058594 231.28125 79.191406 230.234375 80.351562 C 229.1875 81.507812 228.167969 82.695312 227.175781 83.902344 C 226.183594 85.113281 225.226562 86.34375 224.296875 87.601562 C 223.363281 88.859375 222.464844 90.136719 221.597656 91.4375 C 220.730469 92.738281 219.894531 94.058594 219.09375 95.398438 C 218.289062 96.738281 217.519531 98.101562 216.785156 99.480469 C 216.046875 100.859375 215.347656 102.253906 214.679688 103.667969 C 214.007812 105.078125 213.375 106.507812 212.777344 107.953125 C 212.179688 109.398438 211.617188 110.855469 211.089844 112.328125 C 210.5625 113.796875 210.074219 115.28125 209.621094 116.777344 C 209.164062 118.273438 208.746094 119.777344 208.367188 121.292969 C 207.988281 122.8125 207.644531 124.335938 207.335938 125.867188 C 207.03125 127.402344 206.761719 128.941406 206.53125 130.488281 C 206.300781 132.03125 206.109375 133.582031 205.953125 135.136719 C 205.800781 136.695312 205.683594 138.253906 205.605469 139.8125 C 205.523438 141.375 205.484375 142.9375 205.484375 144.5 L 205.484375 216.882812 L 59.65625 216.882812 C 57.707031 216.878906 55.765625 216.96875 53.824219 217.15625 C 51.886719 217.34375 49.960938 217.625 48.050781 218 C 46.140625 218.378906 44.25 218.847656 42.386719 219.410156 C 40.519531 219.972656 38.6875 220.621094 36.886719 221.367188 C 35.085938 222.109375 33.328125 222.9375 31.605469 223.851562 C 29.886719 224.769531 28.21875 225.765625 26.597656 226.84375 C 24.976562 227.925781 23.410156 229.082031 21.902344 230.316406 C 20.398438 231.550781 18.953125 232.855469 17.574219 234.230469 C 16.195312 235.605469 14.886719 237.046875 13.652344 238.550781 C 12.414062 240.054688 11.253906 241.617188 10.167969 243.238281 C 9.085938 244.855469 8.085938 246.523438 7.164062 248.242188 C 6.246094 249.957031 5.414062 251.714844 4.667969 253.515625 C 3.917969 255.3125 3.261719 257.144531 2.695312 259.007812 C 2.132812 260.875 1.65625 262.761719 1.277344 264.671875 C 0.894531 266.582031 0.609375 268.503906 0.417969 270.445312 C 0.226562 272.382812 0.132812 274.324219 0.132812 276.273438 L 0.132812 386.703125 L 308.621094 386.703125 L 308.621094 362.710938 C 308.621094 361.179688 308.695312 359.65625 308.847656 358.136719 C 308.996094 356.613281 309.21875 355.105469 309.519531 353.605469 C 309.816406 352.105469 310.1875 350.625 310.632812 349.164062 C 311.074219 347.699219 311.589844 346.261719 312.175781 344.851562 C 312.757812 343.4375 313.410156 342.058594 314.132812 340.710938 C 314.851562 339.363281 315.636719 338.054688 316.484375 336.785156 C 317.335938 335.511719 318.246094 334.285156 319.214844 333.105469 C 320.183594 331.925781 321.207031 330.792969 322.289062 329.710938 C 323.371094 328.632812 324.5 327.605469 325.683594 326.636719 C 326.863281 325.667969 328.089844 324.757812 329.359375 323.910156 C 330.632812 323.058594 331.941406 322.273438 333.289062 321.554688 C 334.636719 320.835938 336.015625 320.179688 337.429688 319.597656 C 338.839844 319.011719 340.277344 318.496094 341.742188 318.054688 C 343.203125 317.609375 344.683594 317.238281 346.183594 316.941406 C 347.679688 316.644531 349.191406 316.417969 350.710938 316.269531 C 352.234375 316.121094 353.757812 316.042969 355.285156 316.042969 L 453.386719 316.042969 C 454.917969 316.042969 456.441406 316.121094 457.960938 316.269531 C 459.484375 316.417969 460.992188 316.644531 462.492188 316.941406 C 463.992188 317.238281 465.472656 317.609375 466.933594 318.054688 C 468.394531 318.496094 469.832031 319.011719 471.246094 319.597656 C 472.65625 320.179688 474.039062 320.835938 475.386719 321.554688 C 476.734375 322.273438 478.042969 323.058594 479.3125 323.910156 C 480.585938 324.757812 481.808594 325.667969 482.992188 326.636719 C 484.171875 327.605469 485.304688 328.632812 486.382812 329.710938 C 487.464844 330.792969 488.492188 331.925781 489.460938 333.105469 C 490.429688 334.285156 491.339844 335.511719 492.1875 336.785156 C 493.035156 338.054688 493.820312 339.363281 494.542969 340.710938 C 495.261719 342.058594 495.914062 343.4375 496.5 344.851562 C 497.085938 346.261719 497.597656 347.699219 498.042969 349.164062 C 498.488281 350.625 498.859375 352.105469 499.15625 353.605469 C 499.453125 355.105469 499.679688 356.613281 499.828125 358.136719 C 499.976562 359.65625 500.050781 361.179688 500.050781 362.710938 L 500.050781 386.703125 L 809.335938 386.703125 L 809.335938 276.273438 C 809.335938 274.324219 809.242188 272.382812 809.050781 270.445312 C 808.859375 268.503906 808.574219 266.582031 808.191406 264.671875 C 807.8125 262.761719 807.339844 260.875 806.773438 259.007812 C 806.207031 257.144531 805.550781 255.3125 804.804688 253.515625 C 804.058594 251.714844 803.222656 249.957031 802.304688 248.242188 C 801.386719 246.523438 800.382812 244.855469 799.300781 243.238281 C 798.214844 241.617188 797.054688 240.054688 795.820312 238.550781 C 794.582031 237.046875 793.273438 235.605469 791.894531 234.230469 C 790.515625 232.855469 789.074219 231.550781 787.566406 230.316406 C 786.058594 229.082031 784.496094 227.925781 782.875 226.847656 C 781.25 225.765625 779.582031 224.769531 777.863281 223.851562 C 776.144531 222.9375 774.382812 222.109375 772.582031 221.367188 C 770.78125 220.621094 768.949219 219.972656 767.082031 219.410156 C 765.21875 218.847656 763.328125 218.378906 761.417969 218 C 759.507812 217.625 757.582031 217.34375 755.644531 217.15625 C 753.703125 216.96875 751.761719 216.878906 749.8125 216.882812 Z M 265.535156 144.5 C 265.542969 143.339844 265.601562 142.1875 265.71875 141.035156 C 265.835938 139.882812 266.007812 138.738281 266.238281 137.601562 C 266.46875 136.46875 266.75 135.347656 267.089844 134.238281 C 267.429688 133.132812 267.820312 132.042969 268.265625 130.976562 C 268.710938 129.90625 269.207031 128.859375 269.753906 127.839844 C 270.300781 126.820312 270.898438 125.828125 271.542969 124.867188 C 272.1875 123.902344 272.875 122.976562 273.613281 122.078125 C 274.347656 121.183594 275.125 120.328125 275.941406 119.507812 C 276.761719 118.691406 277.617188 117.914062 278.511719 117.179688 C 279.40625 116.441406 280.335938 115.753906 281.300781 115.109375 C 282.261719 114.464844 283.253906 113.871094 284.273438 113.320312 C 285.292969 112.773438 286.339844 112.277344 287.40625 111.832031 C 288.476562 111.386719 289.566406 110.996094 290.671875 110.65625 C 291.78125 110.320312 292.902344 110.035156 294.035156 109.804688 C 295.171875 109.578125 296.316406 109.402344 297.46875 109.285156 C 298.621094 109.167969 299.773438 109.109375 300.933594 109.105469 L 507.742188 109.105469 C 508.898438 109.109375 510.054688 109.167969 511.207031 109.285156 C 512.359375 109.402344 513.503906 109.578125 514.636719 109.804688 C 515.773438 110.035156 516.894531 110.320312 518 110.65625 C 519.109375 110.996094 520.199219 111.386719 521.265625 111.832031 C 522.335938 112.277344 523.378906 112.773438 524.402344 113.320312 C 525.421875 113.871094 526.414062 114.464844 527.375 115.109375 C 528.335938 115.753906 529.265625 116.441406 530.160156 117.179688 C 531.054688 117.914062 531.914062 118.691406 532.730469 119.507812 C 533.550781 120.328125 534.328125 121.183594 535.0625 122.078125 C 535.796875 122.976562 536.488281 123.902344 537.132812 124.867188 C 537.777344 125.828125 538.371094 126.820312 538.917969 127.839844 C 539.464844 128.859375 539.960938 129.90625 540.40625 130.976562 C 540.851562 132.042969 541.246094 133.132812 541.582031 134.238281 C 541.921875 135.347656 542.207031 136.46875 542.433594 137.601562 C 542.664062 138.738281 542.835938 139.882812 542.957031 141.035156 C 543.074219 142.1875 543.132812 143.339844 543.136719 144.5 L 543.136719 216.882812 L 265.535156 216.882812 Z M 265.535156 144.5 " fill-opacity="1" fill-rule="nonzero"/></svg>