<svg xmlns="http://www.w3.org/2000/svg" xmlns:xlink="http://www.w3.org/1999/xlink" width="1080" zoomAndPan="magnify" viewBox="0 0 810 809.999993" height="1080" preserveAspectRatio="xMidYMid meet" version="1.0"><path fill="#b6039f" d="M 405.109375 0 C 181.375 0 0 181.375 0 405.105469 C 0 628.835938 181.375 810.214844 405.109375 810.214844 C 628.847656 810.214844 810.21875 628.835938 810.21875 405.105469 C 810.21875 181.375 628.847656 0 405.109375 0 Z M 405.109375 62.535156 C 558.628906 62.535156 688.882812 164.042969 732.289062 303.457031 C 732.136719 303.578125 732.042969 303.660156 732.042969 303.660156 C 735.519531 312.6875 735.558594 344.78125 705.644531 343.261719 C 609.894531 338.40625 598.648438 255.277344 404.933594 255.023438 C 211.214844 255.277344 199.984375 338.40625 104.226562 343.261719 C 77 344.648438 74.589844 318.175781 77 306.605469 C 119.417969 165.574219 250.445312 62.535156 405.109375 62.535156 Z M 81.34375 517.046875 C 78.347656 504.730469 80.070312 485.457031 100.066406 479.453125 C 120.910156 473.203125 172.332031 464.175781 226.527344 532.96875 C 280.726562 601.757812 327.835938 686.644531 330.757812 705.988281 C 333.535156 724.398438 319.292969 736.558594 304.011719 732.390625 C 304.011719 732.390625 303.972656 732.398438 303.914062 732.417969 C 199.867188 700.1875 116.898438 619.597656 81.34375 517.046875 Z M 506.28125 732.425781 C 506.035156 732.398438 505.859375 732.390625 505.859375 732.390625 C 490.578125 736.550781 476.332031 724.398438 479.109375 705.988281 C 482.039062 686.644531 529.144531 601.757812 583.347656 532.96875 C 637.546875 464.175781 688.960938 473.203125 709.808594 479.453125 C 731.765625 486.042969 731.699219 508.644531 727.523438 520.457031 C 727.523438 520.457031 727.546875 520.566406 727.582031 520.726562 C 691.332031 621.535156 609.089844 700.589844 506.28125 732.425781 Z M 506.28125 732.425781 " fill-opacity="1" fill-rule="nonzero"/><path fill="#b6039f" d="M 404.070312 255.019531 C 404.359375 255.019531 404.644531 255.023438 404.9375 255.023438 C 405.226562 255.023438 405.511719 255.019531 405.808594 255.019531 Z M 404.070312 255.019531 " fill-opacity="1" fill-rule="nonzero"/></svg>